<?xml version="1.0" encoding="UTF-8" standalone="no"?>
<!DOCTYPE svg PUBLIC "-//W3C//DTD SVG 1.1//EN"
 "http://www.w3.org/Graphics/SVG/1.1/DTD/svg11.dtd">
<!-- Generated by graphviz version 14.0.2 (20251019.1705)
 -->
<!-- Title: DigitalQuipu Pages: 1 -->
<svg width="2093pt" height="1016pt"
 viewBox="0.00 0.00 2093.00 1016.00" xmlns="http://www.w3.org/2000/svg" xmlns:xlink="http://www.w3.org/1999/xlink">
<g id="graph0" class="graph" transform="scale(1 1) rotate(0) translate(4 1012)">
<title>DigitalQuipu</title>
<polygon fill="white" stroke="none" points="-4,4 -4,-1012 2088.67,-1012 2088.67,4 -4,4"/>
<!-- entity_Apu_Qocha -->
<g id="node1" class="node">
<title>entity_Apu_Qocha</title>
<ellipse fill="#d4af37" stroke="black" stroke-width="1.3" cx="205.75" cy="-18" rx="89.49" ry="18"/>
<text xml:space="preserve" text-anchor="middle" x="205.75" y="-12.57" font-family="Helvetica,sans-Serif" font-size="14.00">Apu Qocha\n(hana)</text>
</g>
<!-- entity_Kalasasaya__Gateway_of_the_Sun -->
<g id="node2" class="node">
<title>entity_Kalasasaya__Gateway_of_the_Sun</title>
<ellipse fill="#d4af37" stroke="black" stroke-width="1.3" cx="205.75" cy="-72" rx="174.81" ry="18"/>
<text xml:space="preserve" text-anchor="middle" x="205.75" y="-66.58" font-family="Helvetica,sans-Serif" font-size="14.00">Kalasasaya, Gateway of the Sun\n(hana)</text>
</g>
<!-- entity_Khunu -->
<g id="node3" class="node">
<title>entity_Khunu</title>
<ellipse fill="#8d6e63" stroke="black" stroke-width="1.3" cx="205.75" cy="-450" rx="64.04" ry="18"/>
<text xml:space="preserve" text-anchor="middle" x="205.75" y="-444.57" font-family="Helvetica,sans-Serif" font-size="14.00">Khunu\n(kay)</text>
</g>
<!-- cord_Khunu_s_Threshold -->
<g id="node14" class="node">
<title>cord_Khunu_s_Threshold</title>
<polygon fill="#ebf2fd" stroke="black" stroke-width="1.5" points="678.09,-438 512.02,-420 678.09,-402 844.16,-420 678.09,-438"/>
<text xml:space="preserve" text-anchor="middle" x="678.09" y="-414.57" font-family="Helvetica,sans-Serif" font-size="14.00">Khunu&#39;s Threshold\n[ritual]</text>
</g>
<!-- entity_Khunu&#45;&gt;cord_Khunu_s_Threshold -->
<g id="edge1" class="edge">
<title>entity_Khunu&#45;&gt;cord_Khunu_s_Threshold</title>
<path fill="none" stroke="#90a4ae" stroke-width="1.1" d="M268.72,-446.05C345.05,-441.18 476.01,-432.83 569.03,-426.89"/>
</g>
<!-- cord_Descent_into_Becoming -->
<g id="node18" class="node">
<title>cord_Descent_into_Becoming</title>
<polygon fill="#121418" stroke="black" stroke-width="1.5" points="678.09,-513 486.61,-495 678.09,-477 869.56,-495 678.09,-513"/>
<text xml:space="preserve" text-anchor="middle" x="678.09" y="-489.57" font-family="Helvetica,sans-Serif" font-size="14.00">Descent into Becoming\n[ritual]</text>
</g>
<!-- entity_Khunu&#45;&gt;cord_Descent_into_Becoming -->
<g id="edge9" class="edge">
<title>entity_Khunu&#45;&gt;cord_Descent_into_Becoming</title>
<path fill="none" stroke="#90a4ae" stroke-width="1.1" d="M266.8,-455.74C345.55,-463.28 484.75,-476.6 578.93,-485.61"/>
</g>
<!-- entity_Naira -->
<g id="node4" class="node">
<title>entity_Naira</title>
<ellipse fill="#8d6e63" stroke="black" stroke-width="1.3" cx="205.75" cy="-612" rx="59.55" ry="18"/>
<text xml:space="preserve" text-anchor="middle" x="205.75" y="-606.58" font-family="Helvetica,sans-Serif" font-size="14.00">Naira\n(kay)</text>
</g>
<!-- entity_Pukara__Sacred_Mountain -->
<g id="node5" class="node">
<title>entity_Pukara__Sacred_Mountain</title>
<ellipse fill="#d4af37" stroke="black" stroke-width="1.3" cx="205.75" cy="-666" rx="145.87" ry="18"/>
<text xml:space="preserve" text-anchor="middle" x="205.75" y="-660.58" font-family="Helvetica,sans-Serif" font-size="14.00">Pukara, Sacred Mountain\n(hana)</text>
</g>
<!-- entity_River_Spirit -->
<g id="node6" class="node">
<title>entity_River_Spirit</title>
<ellipse fill="#8d6e63" stroke="black" stroke-width="1.3" cx="205.75" cy="-720" rx="82" ry="18"/>
<text xml:space="preserve" text-anchor="middle" x="205.75" y="-714.58" font-family="Helvetica,sans-Serif" font-size="14.00">River Spirit\n(kay)</text>
</g>
<!-- entity_The_Burial_Mound__Threshold_of_Passage -->
<g id="node7" class="node">
<title>entity_The_Burial_Mound__Threshold_of_Passage</title>
<ellipse fill="#8d6e63" stroke="black" stroke-width="1.3" cx="205.75" cy="-774" rx="201.76" ry="18"/>
<text xml:space="preserve" text-anchor="middle" x="205.75" y="-768.58" font-family="Helvetica,sans-Serif" font-size="14.00">The Burial Mound, Threshold of Passage\n(kay)</text>
</g>
<!-- entity_The_Comet__Messenger_of_the_Ancestors -->
<g id="node8" class="node">
<title>entity_The_Comet__Messenger_of_the_Ancestors</title>
<ellipse fill="#d4af37" stroke="black" stroke-width="1.3" cx="205.75" cy="-828" rx="205.75" ry="18"/>
<text xml:space="preserve" text-anchor="middle" x="205.75" y="-822.58" font-family="Helvetica,sans-Serif" font-size="14.00">The Comet, Messenger of the Ancestors\n(hana)</text>
</g>
<!-- entity_The_Elder -->
<g id="node9" class="node">
<title>entity_The_Elder</title>
<ellipse fill="#121418" stroke="black" stroke-width="1.3" cx="205.75" cy="-558" rx="82.5" ry="18"/>
<text xml:space="preserve" text-anchor="middle" x="205.75" y="-552.58" font-family="Helvetica,sans-Serif" font-size="14.00">The Elder\n(ukhu)</text>
</g>
<!-- entity_The_Elder&#45;&gt;cord_Khunu_s_Threshold -->
<g id="edge4" class="edge">
<title>entity_The_Elder&#45;&gt;cord_Khunu_s_Threshold</title>
<path fill="none" stroke="#90a4ae" stroke-width="1.1" d="M284.86,-563.45C325.65,-562.61 374.6,-555.47 411.51,-531 438.57,-513.06 422.14,-486.96 448.51,-468 480.61,-444.92 521.41,-432.46 559.63,-425.87"/>
</g>
<!-- entity_The_Elder&#45;&gt;cord_Descent_into_Becoming -->
<g id="edge7" class="edge">
<title>entity_The_Elder&#45;&gt;cord_Descent_into_Becoming</title>
<path fill="none" stroke="#90a4ae" stroke-width="1.1" d="M288.05,-555.53C330.61,-553.58 383.51,-550.11 430.51,-544 496.51,-535.42 571.38,-519.67 621.13,-508.34"/>
</g>
<!-- entity_The_Suka_Kollus__Mirrors_of_Cosmic_Order -->
<g id="node10" class="node">
<title>entity_The_Suka_Kollus__Mirrors_of_Cosmic_Order</title>
<ellipse fill="#8d6e63" stroke="black" stroke-width="1.3" cx="205.75" cy="-882" rx="205.75" ry="18"/>
<text xml:space="preserve" text-anchor="middle" x="205.75" y="-876.58" font-family="Helvetica,sans-Serif" font-size="14.00">The Suka Kollus, Mirrors of Cosmic Order\n(kay)</text>
</g>
<!-- entity_Titicaca__Mother_of_Waters -->
<g id="node11" class="node">
<title>entity_Titicaca__Mother_of_Waters</title>
<ellipse fill="#d4af37" stroke="black" stroke-width="1.3" cx="205.75" cy="-936" rx="149.37" ry="18"/>
<text xml:space="preserve" text-anchor="middle" x="205.75" y="-930.58" font-family="Helvetica,sans-Serif" font-size="14.00">Titicaca, Mother of Waters\n(hana)</text>
</g>
<!-- entity_Viracocha__The_Staff_God -->
<g id="node12" class="node">
<title>entity_Viracocha__The_Staff_God</title>
<ellipse fill="#d4af37" stroke="black" stroke-width="1.3" cx="205.75" cy="-990" rx="145.37" ry="18"/>
<text xml:space="preserve" text-anchor="middle" x="205.75" y="-984.58" font-family="Helvetica,sans-Serif" font-size="14.00">Viracocha, The Staff God\n(hana)</text>
</g>
<!-- weaving_W01 -->
<g id="node13" class="node">
<title>weaving_W01</title>
<polygon fill="#d4af37" stroke="black" stroke-width="1.1" points="2084.67,-366 1911.92,-366 1911.92,-330 2084.67,-330 2084.67,-366"/>
<text xml:space="preserve" text-anchor="middle" x="1998.3" y="-342.57" font-family="Helvetica,sans-Serif" font-size="14.00">W01\nTail of the Departed</text>
</g>
<!-- cord_Khunu_s_Threshold&#45;&gt;weaving_W01 -->
<g id="edge6" class="edge">
<title>cord_Khunu_s_Threshold&#45;&gt;weaving_W01</title>
<path fill="none" stroke="#ebf2fd" stroke-width="1.3" d="M844.76,-420.67C1079.18,-419.86 1520.73,-411.84 1893.92,-368 1895.8,-367.78 1897.69,-367.54 1899.6,-367.3"/>
<polygon fill="#ebf2fd" stroke="#ebf2fd" stroke-width="1.3" points="1900.07,-370.76 1909.48,-365.89 1899.09,-363.83 1900.07,-370.76"/>
<text xml:space="preserve" text-anchor="middle" x="1409.8" y="-422.57" font-family="Helvetica,sans-Serif" font-size="14.00">encounter: Clarity of sight: the folding of Pacha becomes visible to one who watches with pure heart — Truth made manifest.</text>
</g>
<!-- entity_The_Comet -->
<g id="node15" class="node">
<title>entity_The_Comet</title>
<ellipse fill="none" stroke="black" cx="205.75" cy="-288" rx="84.5" ry="18"/>
<text xml:space="preserve" text-anchor="middle" x="205.75" y="-282.57" font-family="Helvetica,sans-Serif" font-size="14.00">entity_The_Comet</text>
</g>
<!-- entity_The_Comet&#45;&gt;cord_Khunu_s_Threshold -->
<g id="edge2" class="edge">
<title>entity_The_Comet&#45;&gt;cord_Khunu_s_Threshold</title>
<path fill="none" stroke="#90a4ae" stroke-width="1.1" d="M287.14,-282.93C327.36,-284.1 375.09,-291.42 411.51,-315 437.8,-332.03 422.76,-357.15 448.51,-375 479.5,-396.49 518.24,-408.3 554.98,-414.62"/>
</g>
<!-- cord_Celestial_Interpreter -->
<g id="node24" class="node">
<title>cord_Celestial_Interpreter</title>
<polygon fill="#d4af37" stroke="black" stroke-width="1.5" points="678.09,-306 497.9,-288 678.09,-270 858.27,-288 678.09,-306"/>
<text xml:space="preserve" text-anchor="middle" x="678.09" y="-282.57" font-family="Helvetica,sans-Serif" font-size="14.00">Celestial Interpreter\n[dream]</text>
</g>
<!-- entity_The_Comet&#45;&gt;cord_Celestial_Interpreter -->
<g id="edge17" class="edge">
<title>entity_The_Comet&#45;&gt;cord_Celestial_Interpreter</title>
<path fill="none" stroke="#90a4ae" stroke-width="1.1" d="M290.57,-288C346.16,-288 421.38,-288 490.68,-288"/>
</g>
<!-- entity_The_Community -->
<g id="node16" class="node">
<title>entity_The_Community</title>
<ellipse fill="none" stroke="black" cx="205.75" cy="-396" rx="103.96" ry="18"/>
<text xml:space="preserve" text-anchor="middle" x="205.75" y="-390.57" font-family="Helvetica,sans-Serif" font-size="14.00">entity_The_Community</text>
</g>
<!-- entity_The_Community&#45;&gt;cord_Khunu_s_Threshold -->
<g id="edge3" class="edge">
<title>entity_The_Community&#45;&gt;cord_Khunu_s_Threshold</title>
<path fill="none" stroke="#90a4ae" stroke-width="1.1" d="M305.92,-401.06C380.18,-404.85 481.98,-410.04 560.2,-414.04"/>
</g>
<!-- cord_The_Measure_of_Balance -->
<g id="node19" class="node">
<title>cord_The_Measure_of_Balance</title>
<polygon fill="#8d6e63" stroke="black" stroke-width="1.5" points="678.09,-366 448.51,-348 678.09,-330 907.67,-348 678.09,-366"/>
<text xml:space="preserve" text-anchor="middle" x="678.09" y="-342.57" font-family="Helvetica,sans-Serif" font-size="14.00">The Measure of Balance\n[reciprocity]</text>
</g>
<!-- entity_The_Community&#45;&gt;cord_The_Measure_of_Balance -->
<g id="edge11" class="edge">
<title>entity_The_Community&#45;&gt;cord_The_Measure_of_Balance</title>
<path fill="none" stroke="#90a4ae" stroke-width="1.1" d="M296.33,-386.86C375.49,-378.78 490.93,-367 573.93,-358.53"/>
</g>
<!-- entity_The_Burial_Mound -->
<g id="node17" class="node">
<title>entity_The_Burial_Mound</title>
<ellipse fill="none" stroke="black" cx="205.75" cy="-504" rx="113.44" ry="18"/>
<text xml:space="preserve" text-anchor="middle" x="205.75" y="-498.57" font-family="Helvetica,sans-Serif" font-size="14.00">entity_The_Burial_Mound</text>
</g>
<!-- entity_The_Burial_Mound&#45;&gt;cord_Khunu_s_Threshold -->
<g id="edge5" class="edge">
<title>entity_The_Burial_Mound&#45;&gt;cord_Khunu_s_Threshold</title>
<path fill="none" stroke="#90a4ae" stroke-width="1.1" d="M300.61,-493.77C335.55,-489.4 375.47,-483.74 411.51,-477 428.14,-473.89 432,-471.74 448.51,-468 505.65,-455.05 571.11,-441.43 617.3,-432.02"/>
</g>
<!-- entity_The_Burial_Mound&#45;&gt;cord_Descent_into_Becoming -->
<g id="edge8" class="edge">
<title>entity_The_Burial_Mound&#45;&gt;cord_Descent_into_Becoming</title>
<path fill="none" stroke="#90a4ae" stroke-width="1.1" d="M318.81,-501.86C376.69,-500.75 448.41,-499.38 512.45,-498.15"/>
</g>
<!-- cord_Descent_into_Becoming&#45;&gt;weaving_W01 -->
<g id="edge10" class="edge">
<title>cord_Descent_into_Becoming&#45;&gt;weaving_W01</title>
<path fill="none" stroke="#121418" stroke-width="1.3" d="M749.55,-507.01C941.58,-536.57 1486.92,-599.21 1893.92,-437 1926.5,-424.02 1955.98,-396.27 1975.04,-375.19"/>
<polygon fill="#121418" stroke="#121418" stroke-width="1.3" points="1977.54,-377.65 1981.5,-367.82 1972.28,-373.03 1977.54,-377.65"/>
<text xml:space="preserve" text-anchor="middle" x="1409.8" y="-546.38" font-family="Helvetica,sans-Serif" font-size="14.00">transformation: The Elder becomes ancestor; the mound becomes threshold — The passage is sealed and sacred.</text>
</g>
<!-- cord_The_Measure_of_Balance&#45;&gt;weaving_W01 -->
<g id="edge13" class="edge">
<title>cord_The_Measure_of_Balance&#45;&gt;weaving_W01</title>
<path fill="none" stroke="#8d6e63" stroke-width="1.3" d="M917.04,-348C1210.03,-348 1694.07,-348 1899.86,-348"/>
<polygon fill="#8d6e63" stroke="#8d6e63" stroke-width="1.3" points="1899.56,-351.5 1909.56,-348 1899.56,-344.5 1899.56,-351.5"/>
<text xml:space="preserve" text-anchor="middle" x="1409.8" y="-350.45" font-family="Helvetica,sans-Serif" font-size="14.00">conflict: The fields no longer mirror cosmic order—the breach between human and earth is made visible — Order shattered.</text>
</g>
<!-- entity_The_Suka_Kollus -->
<g id="node20" class="node">
<title>entity_The_Suka_Kollus</title>
<ellipse fill="none" stroke="black" cx="205.75" cy="-342" rx="107.45" ry="18"/>
<text xml:space="preserve" text-anchor="middle" x="205.75" y="-336.57" font-family="Helvetica,sans-Serif" font-size="14.00">entity_The_Suka_Kollus</text>
</g>
<!-- entity_The_Suka_Kollus&#45;&gt;cord_The_Measure_of_Balance -->
<g id="edge12" class="edge">
<title>entity_The_Suka_Kollus&#45;&gt;cord_The_Measure_of_Balance</title>
<path fill="none" stroke="#90a4ae" stroke-width="1.1" d="M313.19,-343.36C360.34,-343.96 417.47,-344.69 472.35,-345.39"/>
</g>
<!-- cord_Stone_and_Water -->
<g id="node21" class="node">
<title>cord_Stone_and_Water</title>
<polygon fill="#847f8b" stroke="black" stroke-width="1.5" points="678.09,-198 459.8,-180 678.09,-162 896.38,-180 678.09,-198"/>
<text xml:space="preserve" text-anchor="middle" x="678.09" y="-174.57" font-family="Helvetica,sans-Serif" font-size="14.00">Stone and Water\n[stone and water]</text>
</g>
<!-- cord_Stone_and_Water&#45;&gt;weaving_W01 -->
<g id="edge16" class="edge">
<title>cord_Stone_and_Water&#45;&gt;weaving_W01</title>
<path fill="none" stroke="#847f8b" stroke-width="1.3" d="M768.02,-168.74C974.28,-146.27 1497.86,-110.47 1893.92,-265.25 1924.74,-277.3 1953.59,-301.96 1972.94,-321.24"/>
<polygon fill="#847f8b" stroke="#847f8b" stroke-width="1.3" points="1970.27,-323.52 1979.76,-328.25 1975.29,-318.64 1970.27,-323.52"/>
<text xml:space="preserve" text-anchor="middle" x="1409.8" y="-267.7" font-family="Helvetica,sans-Serif" font-size="14.00">union: Stone endures while water refuses—the two cosmic powers express the crisis differently — Divergence in response.</text>
</g>
<!-- entity_Pukara -->
<g id="node22" class="node">
<title>entity_Pukara</title>
<ellipse fill="none" stroke="black" cx="205.75" cy="-126" rx="65.53" ry="18"/>
<text xml:space="preserve" text-anchor="middle" x="205.75" y="-120.58" font-family="Helvetica,sans-Serif" font-size="14.00">entity_Pukara</text>
</g>
<!-- entity_Pukara&#45;&gt;cord_Stone_and_Water -->
<g id="edge14" class="edge">
<title>entity_Pukara&#45;&gt;cord_Stone_and_Water</title>
<path fill="none" stroke="#90a4ae" stroke-width="1.1" d="M266.8,-132.89C346.54,-142.05 488.26,-158.32 582.46,-169.14"/>
</g>
<!-- entity_Lake_Titicaca -->
<g id="node23" class="node">
<title>entity_Lake_Titicaca</title>
<ellipse fill="none" stroke="black" cx="205.75" cy="-180" rx="92.48" ry="18"/>
<text xml:space="preserve" text-anchor="middle" x="205.75" y="-174.57" font-family="Helvetica,sans-Serif" font-size="14.00">entity_Lake_Titicaca</text>
</g>
<!-- entity_Lake_Titicaca&#45;&gt;cord_Stone_and_Water -->
<g id="edge15" class="edge">
<title>entity_Lake_Titicaca&#45;&gt;cord_Stone_and_Water</title>
<path fill="none" stroke="#90a4ae" stroke-width="1.1" d="M298.55,-180C342.4,-180 396.99,-180 450.95,-180"/>
</g>
<!-- cord_Celestial_Interpreter&#45;&gt;weaving_W01 -->
<g id="edge19" class="edge">
<title>cord_Celestial_Interpreter&#45;&gt;weaving_W01</title>
<path fill="none" stroke="#d4af37" stroke-width="1.3" d="M839.34,-285.39C1072.29,-283.4 1517.72,-286.34 1893.92,-328.25 1895.8,-328.46 1897.69,-328.68 1899.6,-328.92"/>
<polygon fill="#d4af37" stroke="#d4af37" stroke-width="1.3" points="1899.1,-332.39 1909.48,-330.28 1900.05,-325.45 1899.1,-332.39"/>
<text xml:space="preserve" text-anchor="middle" x="1409.8" y="-330.7" font-family="Helvetica,sans-Serif" font-size="14.00">memory: The temple guards the axis where sky and earth meet; the comet&#39;s path shows that axis tilting—imbalance written in light — The center no longer holds.</text>
</g>
<!-- entity_Kalasasaya_Temple -->
<g id="node25" class="node">
<title>entity_Kalasasaya_Temple</title>
<ellipse fill="none" stroke="black" cx="205.75" cy="-234" rx="117.93" ry="18"/>
<text xml:space="preserve" text-anchor="middle" x="205.75" y="-228.57" font-family="Helvetica,sans-Serif" font-size="14.00">entity_Kalasasaya_Temple</text>
</g>
<!-- entity_Kalasasaya_Temple&#45;&gt;cord_Celestial_Interpreter -->
<g id="edge18" class="edge">
<title>entity_Kalasasaya_Temple&#45;&gt;cord_Celestial_Interpreter</title>
<path fill="none" stroke="#90a4ae" stroke-width="1.1" d="M301.37,-244.86C385.87,-254.56 508.61,-268.66 590.55,-278.06"/>
</g>
</g>
</svg>
