<?xml version="1.0" encoding="UTF-8" standalone="no"?>
<!DOCTYPE svg PUBLIC "-//W3C//DTD SVG 1.1//EN"
 "http://www.w3.org/Graphics/SVG/1.1/DTD/svg11.dtd">
<!-- Generated by graphviz version 14.0.2 (20251019.1705)
 -->
<!-- Title: DigitalQuipu Pages: 1 -->
<svg width="1227pt" height="260pt"
 viewBox="0.00 0.00 1227.00 260.00" xmlns="http://www.w3.org/2000/svg" xmlns:xlink="http://www.w3.org/1999/xlink">
<g id="graph0" class="graph" transform="scale(1 1) rotate(0) translate(4 256)">
<title>DigitalQuipu</title>
<polygon fill="white" stroke="none" points="-4,4 -4,-256 1223.49,-256 1223.49,4 -4,4"/>
<!-- entity_Apu_Qocha -->
<g id="node1" class="node">
<title>entity_Apu_Qocha</title>
<ellipse fill="#d4af37" stroke="black" stroke-width="1.3" cx="89.49" cy="-180" rx="89.49" ry="18"/>
<text xml:space="preserve" text-anchor="middle" x="89.49" y="-174.57" font-family="Helvetica,sans-Serif" font-size="14.00">Apu Qocha\n(hana)</text>
</g>
<!-- cord_Mountain___Child -->
<g id="node10" class="node">
<title>cord_Mountain___Child</title>
<polygon fill="#9e9e9e" stroke="black" stroke-width="1.5" points="377.1,-198 215.97,-180 377.1,-162 538.24,-180 377.1,-198"/>
<text xml:space="preserve" text-anchor="middle" x="377.1" y="-174.57" font-family="Helvetica,sans-Serif" font-size="14.00">Mountain &amp; Child\n[stone]</text>
</g>
<!-- entity_Apu_Qocha&#45;&gt;cord_Mountain___Child -->
<g id="edge6" class="edge">
<title>entity_Apu_Qocha&#45;&gt;cord_Mountain___Child</title>
<path fill="none" stroke="#90a4ae" stroke-width="1.1" d="M179.29,-180C188.95,-180 199,-180 209.22,-180"/>
</g>
<!-- entity_Naira -->
<g id="node2" class="node">
<title>entity_Naira</title>
<ellipse fill="#8d6e63" stroke="black" stroke-width="1.3" cx="89.49" cy="-126" rx="59.55" ry="18"/>
<text xml:space="preserve" text-anchor="middle" x="89.49" y="-120.58" font-family="Helvetica,sans-Serif" font-size="14.00">Naira\n(kay)</text>
</g>
<!-- cord_Blood___River -->
<g id="node9" class="node">
<title>cord_Blood___River</title>
<polygon fill="#acddc3" stroke="black" stroke-width="1.5" points="377.1,-90 235.73,-72 377.1,-54 518.48,-72 377.1,-90"/>
<text xml:space="preserve" text-anchor="middle" x="377.1" y="-66.58" font-family="Helvetica,sans-Serif" font-size="14.00">Blood &amp; River\n[water]</text>
</g>
<!-- entity_Naira&#45;&gt;cord_Blood___River -->
<g id="edge1" class="edge">
<title>entity_Naira&#45;&gt;cord_Blood___River</title>
<path fill="none" stroke="#90a4ae" stroke-width="1.1" d="M140.89,-116.47C190.22,-107.14 265.32,-92.95 317.33,-83.11"/>
</g>
<!-- entity_Naira&#45;&gt;cord_Mountain___Child -->
<g id="edge7" class="edge">
<title>entity_Naira&#45;&gt;cord_Mountain___Child</title>
<path fill="none" stroke="#90a4ae" stroke-width="1.1" d="M140.89,-135.53C189.26,-144.67 262.4,-158.5 314.26,-168.31"/>
</g>
<!-- entity_River_Spirit -->
<g id="node3" class="node">
<title>entity_River_Spirit</title>
<ellipse fill="#8d6e63" stroke="black" stroke-width="1.3" cx="89.49" cy="-72" rx="82" ry="18"/>
<text xml:space="preserve" text-anchor="middle" x="89.49" y="-66.58" font-family="Helvetica,sans-Serif" font-size="14.00">River Spirit\n(kay)</text>
</g>
<!-- entity_River_Spirit&#45;&gt;cord_Blood___River -->
<g id="edge2" class="edge">
<title>entity_River_Spirit&#45;&gt;cord_Blood___River</title>
<path fill="none" stroke="#90a4ae" stroke-width="1.1" d="M171.95,-72C190.17,-72 210.04,-72 229.99,-72"/>
</g>
<!-- weaving_W01 -->
<g id="node4" class="node">
<title>weaving_W01</title>
<polygon fill="#8d6e63" stroke="black" stroke-width="1.1" points="1219.49,-144 1010.74,-144 1010.74,-108 1219.49,-108 1219.49,-144"/>
<text xml:space="preserve" text-anchor="middle" x="1115.11" y="-120.58" font-family="Helvetica,sans-Serif" font-size="14.00">W01\nThe River’s First Whisper</text>
</g>
<!-- weaving_W02 -->
<g id="node5" class="node">
<title>weaving_W02</title>
<polygon fill="#d4af37" stroke="black" stroke-width="1.1" points="1184.99,-252 1045.24,-252 1045.24,-216 1184.99,-216 1184.99,-252"/>
<text xml:space="preserve" text-anchor="middle" x="1115.11" y="-228.57" font-family="Helvetica,sans-Serif" font-size="14.00">W02\nThunder Face</text>
</g>
<!-- weaving_W03 -->
<g id="node6" class="node">
<title>weaving_W03</title>
<polygon fill="#8d6e63" stroke="black" stroke-width="1.1" points="1205.61,-90 1024.61,-90 1024.61,-54 1205.61,-54 1205.61,-90"/>
<text xml:space="preserve" text-anchor="middle" x="1115.11" y="-66.58" font-family="Helvetica,sans-Serif" font-size="14.00">W03\n[Short evocative title]</text>
</g>
<!-- weaving_W04 -->
<g id="node7" class="node">
<title>weaving_W04</title>
<polygon fill="#121418" stroke="black" stroke-width="1.1" points="1182.36,-36 1047.86,-36 1047.86,0 1182.36,0 1182.36,-36"/>
<text xml:space="preserve" text-anchor="middle" x="1115.11" y="-12.57" font-family="Helvetica,sans-Serif" font-size="14.00">W04\n[To Be Titled]</text>
</g>
<!-- weaving_W05 -->
<g id="node8" class="node">
<title>weaving_W05</title>
<polygon fill="#8d6e63" stroke="black" stroke-width="1.1" points="1205.61,-198 1024.61,-198 1024.61,-162 1205.61,-162 1205.61,-198"/>
<text xml:space="preserve" text-anchor="middle" x="1115.11" y="-174.57" font-family="Helvetica,sans-Serif" font-size="14.00">W05\n[Short evocative title]</text>
</g>
<!-- cord_Blood___River&#45;&gt;weaving_W01 -->
<g id="edge3" class="edge">
<title>cord_Blood___River&#45;&gt;weaving_W01</title>
<path fill="none" stroke="#acddc3" stroke-width="1.3" d="M452.12,-81.16C484.1,-84.9 521.98,-89.03 556.24,-92 709.01,-105.22 885.76,-115.08 998.66,-120.68"/>
<polygon fill="#acddc3" stroke="#acddc3" stroke-width="1.3" points="998.28,-124.17 1008.44,-121.16 998.62,-117.18 998.28,-124.17"/>
<text xml:space="preserve" text-anchor="middle" x="774.49" y="-122.65" font-family="Helvetica,sans-Serif" font-size="14.00">encounter: first whisper from the river\nEchoes: hana:W02</text>
</g>
<!-- cord_Blood___River&#45;&gt;weaving_W03 -->
<g id="edge4" class="edge">
<title>cord_Blood___River&#45;&gt;weaving_W03</title>
<path fill="none" stroke="#acddc3" stroke-width="1.3" d="M524.4,-72C668.77,-72 885.73,-72 1012.31,-72"/>
<polygon fill="#acddc3" stroke="#acddc3" stroke-width="1.3" points="1012.31,-75.5 1022.31,-72 1012.31,-68.5 1012.31,-75.5"/>
<text xml:space="preserve" text-anchor="middle" x="774.49" y="-74.45" font-family="Helvetica,sans-Serif" font-size="14.00">offering: river accepts the coca leaves; current shifts\nEchoes: ukhu:W04</text>
</g>
<!-- cord_Blood___River&#45;&gt;weaving_W04 -->
<g id="edge5" class="edge">
<title>cord_Blood___River&#45;&gt;weaving_W04</title>
<path fill="none" stroke="#acddc3" stroke-width="1.3" d="M452.56,-62.92C484.45,-59.24 522.14,-55.19 556.24,-52.25 727,-37.55 927.69,-26.83 1035.73,-21.6"/>
<polygon fill="#acddc3" stroke="#acddc3" stroke-width="1.3" points="1035.7,-25.1 1045.52,-21.13 1035.36,-18.11 1035.7,-25.1"/>
<text xml:space="preserve" text-anchor="middle" x="774.49" y="-54.7" font-family="Helvetica,sans-Serif" font-size="14.00">memory: ancestral voice surfaces through water&#45;dark\nEchoes: kay:W03</text>
</g>
<!-- cord_Mountain___Child&#45;&gt;weaving_W02 -->
<g id="edge8" class="edge">
<title>cord_Mountain___Child&#45;&gt;weaving_W02</title>
<path fill="none" stroke="#9e9e9e" stroke-width="1.3" d="M457.38,-189.78C488.21,-193.35 523.84,-197.2 556.24,-200 725.59,-214.66 924.4,-225.18 1033.05,-230.36"/>
<polygon fill="#9e9e9e" stroke="#9e9e9e" stroke-width="1.3" points="1032.77,-233.85 1042.92,-230.82 1033.1,-226.85 1032.77,-233.85"/>
<text xml:space="preserve" text-anchor="middle" x="774.49" y="-230.65" font-family="Helvetica,sans-Serif" font-size="14.00">vision: thunder reveals the mountain’s face\nEchoes: kay:W05</text>
</g>
<!-- cord_Mountain___Child&#45;&gt;weaving_W05 -->
<g id="edge9" class="edge">
<title>cord_Mountain___Child&#45;&gt;weaving_W05</title>
<path fill="none" stroke="#9e9e9e" stroke-width="1.3" d="M544.66,-180C688.5,-180 891.69,-180 1012.46,-180"/>
<polygon fill="#9e9e9e" stroke="#9e9e9e" stroke-width="1.3" points="1012.28,-183.5 1022.28,-180 1012.28,-176.5 1012.28,-183.5"/>
<text xml:space="preserve" text-anchor="middle" x="774.49" y="-182.45" font-family="Helvetica,sans-Serif" font-size="14.00">offering: remembrance offered; protection begins to return</text>
</g>
</g>
</svg>
